<?xml version="1.0" encoding="utf-8"?>
<!-- Generator: Adobe Illustrator 19.0.0, SVG Export Plug-In . SVG Version: 6.00 Build 0)  -->
<svg version="1.1" id="Layer_1" xmlns="http://www.w3.org/2000/svg" xmlns:xlink="http://www.w3.org/1999/xlink" x="0px" y="0px"
	 viewBox="0 0 1280 800" style="enable-background:new 0 0 1280 800;" xml:space="preserve">
<style type="text/css">
	.st0{opacity:0.7;fill:none;stroke:#FFFFFF;stroke-miterlimit:10;}
	.st1{fill:#FFFFFF;}
	.st2{opacity:0.9;fill:none;stroke:#FFFFFF;stroke-width:2;stroke-miterlimit:10;}
	.st3{opacity:0.8;fill:none;stroke:#FFFFFF;stroke-miterlimit:10;}
	.st4{fill:#FF884D;}
	.st5{fill:none;stroke:#FFFFFF;stroke-width:3;stroke-miterlimit:10;}
</style>
<circle id="XMLID_7_" class="st0" cx="675.2" cy="388.4" r="218"/>
<polyline id="XMLID_2_" class="st1" points="682,341 713.7,341 736.2,364 768.5,364 778,373.8 778,408.2 771,426 589.9,426 
	573,409.2 573,376.5 595.2,365 651,365 "/>
<circle id="XMLID_3_" class="st2" cx="675.2" cy="388.4" r="129.5"/>
<circle id="XMLID_4_" class="st3" cx="675.2" cy="388.4" r="183.3"/>
<g id="XMLID_9_">
	<path id="XMLID_5_" class="st4" d="M510.5,512H528l0-20.7c0,0-6.8-7.2-6.9-7.2C521.1,484.1,508.9,485,510.5,512z"/>
	<ellipse id="XMLID_6_" class="st4" cx="527.7" cy="472.9" rx="10.1" ry="11.2"/>
	<path id="XMLID_8_" class="st4" d="M545.3,512h-17.5l0-20.7c0,0,6.8-7.2,6.9-7.2C534.7,484.1,546.9,485,545.3,512z"/>
</g>
<g id="XMLID_10_">
	<path id="XMLID_13_" class="st4" d="M768.5,466h17.5l0-20.7c0,0-6.8-7.2-6.9-7.2C779.2,438.1,766.9,439,768.5,466z"/>
	<ellipse id="XMLID_12_" class="st4" cx="785.7" cy="427" rx="10.1" ry="11.2"/>
	<path id="XMLID_11_" class="st4" d="M803.4,466h-17.5l0-20.7c0,0,6.8-7.2,6.9-7.2C792.8,438.1,805,439,803.4,466z"/>
</g>
<g id="XMLID_14_">
	<path id="XMLID_17_" class="st4" d="M573,195h17.5l0-20.7c0,0-6.8-7.2-6.9-7.2C583.6,167.1,571.4,168,573,195z"/>
	<ellipse id="XMLID_16_" class="st4" cx="590.2" cy="156" rx="10.1" ry="11.2"/>
	<path id="XMLID_15_" class="st4" d="M607.9,195h-17.5l0-20.7c0,0,6.8-7.2,6.9-7.2C597.2,167.1,609.5,168,607.9,195z"/>
</g>
<g id="XMLID_77_">
	<polyline id="XMLID_51_" class="st5" points="264.5,331.8 237.1,328.3 215,345.2 186.8,341.5 177.5,348.8 173.7,378.7 177.7,395 
		335.6,415.3 353,402.6 356.7,374.1 337.9,361 289.5,354.7 	"/>
	<circle id="XMLID_50_" class="st2" cx="265.4" cy="373" r="113.8"/>
	<circle id="XMLID_49_" class="st3" cx="265.4" cy="373" r="161.1"/>
	<circle id="XMLID_48_" class="st0" cx="265.4" cy="373" r="191.6"/>
	<g id="XMLID_44_">
		<path id="XMLID_47_" class="st4" d="M470.3,405.6l-15.3-2l2.3-17.7c0,0,6.8-5.7,6.8-5.6C464.1,380.3,474.6,383,470.3,405.6z"/>
		
			<ellipse id="XMLID_46_" transform="matrix(-0.9918 -0.1275 0.1275 -0.9918 868.2203 796.2421)" class="st4" cx="459.6" cy="370.3" rx="8.9" ry="9.8"/>
		<path id="XMLID_45_" class="st4" d="M439.9,401.7l15.3,2l2.3-17.7c0,0-5.1-7.2-5.2-7.2C452.3,378.8,441.5,378.7,439.9,401.7z"/>
	</g>
	<g id="XMLID_36_">
		<path id="XMLID_39_" class="st4" d="M226.8,290.5l-15.3-2l2.3-17.8c0,0,6.8-5.6,6.8-5.6C220.6,265.2,231.1,267.8,226.8,290.5z"/>
		
			<ellipse id="XMLID_38_" transform="matrix(-0.9918 -0.1275 0.1275 -0.9918 397.862 535.7106)" class="st4" cx="216.1" cy="255.1" rx="8.9" ry="9.8"/>
		<path id="XMLID_37_" class="st4" d="M196.4,286.6l15.3,2l2.3-17.8c0,0-5.1-7.2-5.2-7.2C208.8,263.6,197.9,263.6,196.4,286.6z"/>
	</g>
	<g id="XMLID_40_">
		<path id="XMLID_43_" class="st4" d="M233.4,538.8l-15.3-2l2.3-18c0,0,6.8-5.5,6.8-5.5C227.3,513.3,237.7,516.1,233.4,538.8z"/>
		
			<ellipse id="XMLID_42_" transform="matrix(-0.9918 -0.1275 0.1275 -0.9918 379.5638 1030.3141)" class="st4" cx="222.8" cy="503" rx="8.9" ry="9.8"/>
		<path id="XMLID_41_" class="st4" d="M203,534.9l15.3,2l2.3-18c0,0-5.1-7.1-5.2-7.1C215.4,511.8,204.6,511.9,203,534.9z"/>
	</g>
</g>
<polyline id="XMLID_65_" class="st5" points="897.2,630.3 915.8,625.9 932.1,636 951.2,631.6 958,635.9 962.7,656.1 961.1,667.6 
	854.3,692.4 841.5,685 837,665.7 849,655.3 881.7,647.7 "/>
<circle id="XMLID_64_" class="st2" cx="899.5" cy="658.6" r="78.4"/>
<circle id="XMLID_63_" class="st3" cx="899.5" cy="658.6" r="111"/>
<circle id="XMLID_62_" class="st0" cx="899.5" cy="658.6" r="132"/>
<g id="XMLID_54_">
	<path id="XMLID_57_" class="st4" d="M974.9,737.4l10.6,0l0-12.5c0,0-4.1-4.4-4.2-4.4C981.3,720.6,973.9,721.5,974.9,737.4z"/>
	
		<ellipse id="XMLID_56_" transform="matrix(1 9.927219e-004 -9.927219e-004 1 0.7092 -0.9778)" class="st4" cx="985.3" cy="713.9" rx="6.1" ry="6.8"/>
	<path id="XMLID_55_" class="st4" d="M996,737.4l-10.6,0l0-12.5c0,0,4.1-4.4,4.2-4.4C989.6,720.6,997,721.6,996,737.4z"/>
</g>
<g id="XMLID_82_">
	<path id="XMLID_61_" class="st4" d="M816.9,702.3l8.6,0.8l0.9-10c0,0-3-3.9-3.1-3.9C823.4,689.2,817.3,689.4,816.9,702.3z"/>
	
		<ellipse id="XMLID_60_" transform="matrix(0.9957 9.239716e-002 -9.239716e-002 0.9957 66.7629 -73.4932)" class="st4" cx="827.1" cy="684.3" rx="5" ry="5.5"/>
	<path id="XMLID_59_" class="st4" d="M834,703.9l-8.6-0.8l0.9-10c0,0,3.7-3.3,3.7-3.3C830.1,689.8,836,691.1,834,703.9z"/>
</g>
<g id="XMLID_81_">
	<path id="XMLID_53_" class="st4" d="M805.7,567.6l11.2-2.6l-3.1-13.1c0,0-5.5-3.7-5.5-3.7C808.4,548.2,800.8,551,805.7,567.6z"/>
	
		<ellipse id="XMLID_52_" transform="matrix(0.974 -0.2268 0.2268 0.974 -101.4037 197.9668)" class="st4" cx="811" cy="540.4" rx="6.7" ry="7.3"/>
	<path id="XMLID_35_" class="st4" d="M828,562.4l-11.2,2.6l-3-13.1c0,0,3.3-5.7,3.3-5.7C817.1,546.2,825.1,545.3,828,562.4z"/>
</g>
<g id="XMLID_80_">
	<polyline id="XMLID_32_" class="st5" points="954.7,156.9 976.1,153.9 993.5,167 1015.5,163.9 1022.8,169.5 1026,192.8 1023,205.6 
		899.8,222.7 886.1,213 883,190.8 897.6,180.3 935.4,175.1 	"/>
	<circle id="XMLID_31_" class="st2" cx="954.3" cy="189.1" r="88.9"/>
	<circle id="XMLID_30_" class="st3" cx="954.3" cy="189.1" r="125.8"/>
	<circle id="XMLID_29_" class="st0" cx="954.3" cy="189.1" r="149.7"/>
	<g id="XMLID_21_">
		<path id="XMLID_24_" class="st4" d="M1031.4,192.1l11.9-1.7l-2-14c0,0-5.3-4.3-5.4-4.3C1036,172.1,1027.8,174.4,1031.4,192.1z"/>
		
			<ellipse id="XMLID_23_" transform="matrix(0.9905 -0.1378 0.1378 0.9905 -12.686 144.8072)" class="st4" cx="1039.4" cy="164" rx="6.9" ry="7.7"/>
		<path id="XMLID_22_" class="st4" d="M1055.1,188.8l-11.9,1.7l-1.9-14c0,0,4-5.6,4-5.6C1045.2,170.8,1053.7,170.8,1055.1,188.8z"/>
	</g>
	<g id="XMLID_1_">
		<path id="XMLID_20_" class="st4" d="M951,53.1l14.6-2l-2.4-17c0,0-6.6-5.3-6.6-5.3C956.6,28.8,946.6,31.5,951,53.1z"/>
		
			<ellipse id="XMLID_19_" transform="matrix(0.9905 -0.1378 0.1378 0.9905 6.5327 132.606)" class="st4" cx="960.9" cy="19.1" rx="8.5" ry="9.4"/>
		<path id="XMLID_18_" class="st4" d="M980,49.1l-14.6,2l-2.4-17c0,0,4.8-6.9,4.9-6.9C968,27.2,978.3,27.1,980,49.1z"/>
	</g>
	<g id="XMLID_25_">
		<path id="XMLID_28_" class="st4" d="M853.9,288.2l11.9-1.7l-1.9-13.8c0,0-5.3-4.4-5.4-4.4C858.5,268.4,850.4,270.5,853.9,288.2z"
			/>
		
			<ellipse id="XMLID_27_" transform="matrix(0.9905 -0.1378 0.1378 0.9905 -27.68 121.2801)" class="st4" cx="862" cy="260.5" rx="6.9" ry="7.7"/>
		<path id="XMLID_26_" class="st4" d="M877.6,284.9l-11.9,1.7l-1.9-13.8c0,0,4-5.7,4-5.7C867.8,267.1,876.2,266.9,877.6,284.9z"/>
	</g>
</g>
</svg>
