<?xml version="1.0" encoding="utf-8"?>
<!-- Generator: Adobe Illustrator 19.0.0, SVG Export Plug-In . SVG Version: 6.00 Build 0)  -->
<svg version="1.1" id="Layer_1" xmlns="http://www.w3.org/2000/svg" xmlns:xlink="http://www.w3.org/1999/xlink" x="0px" y="0px"
	 viewBox="-141.5 217.5 375.7 326.2" style="enable-background:new -141.5 217.5 375.7 326.2;" xml:space="preserve">
<style type="text/css">
	.st0{fill:#FE874D;}
	.st1{fill:#FEFEFE;}
	.st2{fill:none;enable-background:new    ;}
</style>
<g>
	<path class="st0" d="M-47.8,217.5c62.9,0,125.7,0,188.6,0c2.5,1.2,24.8,40.7,34.8,58.2c10.1,17.6,20.3,35.1,30.4,52.7
		c8.6,15,17.1,30,25.9,44.8c3.1,5.1,3,9.4,0,14.5c-10.2,17.3-20.2,34.8-30.2,52.2c-9.3,16.1-18.5,32.1-27.8,48.2
		c-9.4,16.3-18.8,32.6-28.2,48.9c-4.3,7.4-2.5,6.6-11.2,6.6c-59.7,0-119.4,0-179.1,0.1c-3,0-4.8-1-6.3-3.6
		c-10.6-18.5-21.3-36.9-31.9-55.4c-10.6-18.4-21.3-36.9-31.9-55.3c-8-13.8-15.9-27.7-24-41.5c-1.3-2.3-1.9-4.7-2.7-7.2
		c0-0.2,0-0.4,0-0.6c1.5-6.9,5.9-12.4,9.2-18.3c10-17.5,20.1-35,30.2-52.4c8.6-14.9,17.2-29.8,25.9-44.8
		C-67.7,250-49.1,218.4-47.8,217.5z"/>
	<path class="st1" d="M111.3,334c-1.9,3.1-3.3,5.5-4.8,7.9c-2.1,3.2-5,4-8.3,2.1c-5.7-3.4-11.3-6.8-16.9-10.3
		c-3.1-1.9-3.8-5-1.9-8.1c7.2-11.9,14.4-23.7,21.6-35.5c1.9-3.1,4.7-3.8,7.8-2c5.9,3.4,11.7,7,17.4,10.6c3,1.9,3.5,4.9,1.8,7.9
		c-1.5,2.6-3.1,5.1-4.7,7.9c16.6-3.5,29.7,2.1,40.3,14.3c3.3,3.8,5.5,8.2,6.4,13.2c0.3,1.4,0.5,2,2,1.1c1.9-1.1,3.9-0.8,5.8,0.3
		c5.1,3.1,10.2,6.1,15.3,9.3c3.1,2,3.8,4.9,1.9,8.1c-2.8,4.8-5.8,9.6-8.7,14.4c-2,3.1-4.9,3.8-8.1,1.9c-5.1-3-10.2-6.2-15.3-9.3
		c-1.4-0.8-2.5-2-2.7-3.6c-0.2-1.6-1-1.6-2.3-1.1c-4.3,1.5-8.9,1.7-13.3,0.9c-2.3-0.4-3.4,0.1-4.5,2.2
		c-23.8,43.7-47.6,87.4-71.4,131.1c-2.9,5.4-5.9,10.8-8.8,16.2c-3.6,6.5-9.6,8.1-16,4.2c-6.2-3.8-12.4-7.5-18.6-11.3
		c-6.7-4.1-7.9-10.1-3.5-16.6c31.3-46.3,62.6-92.7,94-139c1.3-2,1.5-3.3,0.1-5.3C113.4,342.2,112.2,338.5,111.3,334z"/>
	<path class="st1" d="M15.7,234.1c5.6,0,11.2,0.2,16.8-0.1c2.8-0.1,4.7,1.5,6.7,2.8c1.3,0.9-0.1,1.8-0.5,2.5
		c-6.2,10.2-12.3,20.4-18.6,30.6c-1.2,1.9-1.1,2.9,1,4c3.6,2,7.1,4.2,10.6,6.4c1.7,1.1,2.4,1,3.5-0.8c5.8-9.8,11.8-19.5,17.7-29.2
		c0.8-1.2,1.3-3.7,2.7-3.3c2,0.6,4.3,1.6,5.4,3.9c1.1,2.4,2.3,4.8,3.4,7.2c3.9,8.1,7.7,16.2,11.7,24.3c0.8,1.5,0.8,2.7-0.1,4.3
		c-6.6,10.6-13,21.3-19.5,32c-0.9,1.4-1.8,2-3.5,2c-9.6,0.2-19.1,0.6-28.6,0.8c-2.4,0-3.7,0.7-4.8,2.9
		c-21.1,41.6-42.3,83.1-63.3,124.7c-1.1,2.2-2.4,2.8-4.7,2.6c-20.7-1.1-36.4-10.3-46.5-28.6c-1-1.8-1-2.9,0.2-4.6
		c27.3-38,54.6-76.1,81.9-114.1c1.3-1.8,1.5-3.1,0.5-5.2c-4.3-8.5-8.3-17.2-12.6-25.7c-0.8-1.7-0.7-2.9,0.3-4.5
		c6.5-10.5,13-21.1,19.3-31.8c0.9-1.5,1.9-2.2,3.7-2.1c5.8,0.1,11.6,0,17.4,0C15.7,234.8,15.7,234.5,15.7,234.1z"/>
	<path class="st0" d="M123.7,354.6c0.4,0.3,0.8,0.6,1.3,0.9c1.9,1.3,3.7,2.7,5.8,3.7c2,1,2.4,1.7,1.2,3.8
		c-26.5,48.4-52.9,96.8-79.3,145.3c-1.8,3.2-2.1,3.3-5.3,1.4c-5.6-3.4-11.1-6.8-16.7-10.2c-3.8-2.3-3.8-2.5-1.4-6.1
		c29-42.9,58-85.8,87-128.8c2-3,4-5.9,6-8.9C122.7,355.4,122.8,354.7,123.7,354.6z"/>
	<path class="st0" d="M26,243.6c-0.3,0.6-0.8,1.5-1.3,2.3c-5.5,9-10.9,18.1-16.5,27c-1,1.6-1.1,2.4,0.8,3.5
		c8.6,5.1,17.2,10.3,25.6,15.6c1.9,1.2,2.6,0.7,3.5-1c5.4-9.1,10.9-18.1,16.4-27.1c0.5-0.8,0.8-1.8,2-2.5c2.1,4.4,4.3,8.7,6.3,13.1
		c1.5,3.1,4.2,6.4,4.1,9.4c-0.1,3.1-3.1,6-4.9,9c-3.5,5.7-7,11.4-10.4,17.2c-0.9,1.6-2,2-3.7,2.1c-9.6,0.1-19.3,0.5-28.9,0.6
		c-2.3,0-3.5,0.8-4.6,2.9c-21,41.4-42.2,82.7-63.2,124.1c-1.2,2.4-2.4,2.9-5,2.5c-13-1.8-23.3-8-30.7-18.8c-1.3-1.9-1.2-3,0.1-4.8
		c27.2-37.9,54.4-75.8,81.6-113.7c1.3-1.8,1.5-3.1,0.5-5.2c-4.4-8.8-8.6-17.7-12.9-26.5c-0.7-1.4-0.7-2.4,0.1-3.8
		c5-8.1,10-16.3,14.9-24.5c0.6-1,1.1-1.9,2.5-1.9C10.1,243.7,18,243.6,26,243.6z"/>
	<path class="st1" d="M-63.2,433.6c-5.4,0-9.9-4.4-9.8-9.8c0-5.3,4.4-9.6,9.8-9.6c5.4,0,9.6,4.3,9.6,9.6
		C-53.6,429.3-57.8,433.6-63.2,433.6z"/>
</g>
<path class="st2" d="z"/>
</svg>
